<?xml version="1.0" standalone="no"?>
<!DOCTYPE svg PUBLIC "-//W3C//DTD SVG 20010904//EN"
 "http://www.w3.org/TR/2001/REC-SVG-20010904/DTD/svg10.dtd">
<svg version="1.0" xmlns="http://www.w3.org/2000/svg"
 width="300.000000pt" height="300.000000pt" viewBox="0 0 300.000000 300.000000"
 preserveAspectRatio="xMidYMid meet">
<metadata>
Created by potrace 1.14, written by Peter Selinger 2001-2017
</metadata>
<g transform="translate(0.000000,300.000000) scale(0.100000,-0.100000)"
fill="#000000" stroke="none">
<path d="M1499 2958 c-4 -16 -10 -66 -24 -202 -2 -22 -6 -60 -9 -85 -10 -84
-18 -156 -21 -191 -2 -19 -6 -60 -9 -90 -14 -116 -17 -136 -21 -170 -2 -19 -7
-64 -10 -100 -11 -131 -10 -131 -66 -39 -27 45 -49 83 -49 85 0 1 -49 85 -108
186 -60 101 -146 247 -191 325 -45 79 -86 145 -90 147 -4 3 10 -46 31 -107 21
-62 39 -114 39 -117 7 -28 206 -650 217 -678 6 -16 -83 43 -273 181 -60 44
-130 95 -155 112 -25 17 -110 79 -190 136 -174 126 -184 132 -145 89 17 -19
35 -39 40 -45 23 -27 141 -159 150 -169 6 -6 44 -49 85 -96 41 -47 77 -87 80
-90 3 -3 39 -43 80 -90 41 -46 95 -106 120 -133 44 -48 71 -85 54 -74 -7 4
-302 66 -489 103 -40 8 -411 85 -435 90 -14 3 -23 4 -20 1 3 -2 113 -53 245
-112 132 -60 276 -125 320 -145 44 -20 130 -58 190 -85 114 -50 139 -64 114
-66 -19 -1 -15 0 -249 -52 -113 -25 -311 -69 -440 -97 -129 -29 -237 -53 -238
-55 -2 -2 47 -3 110 -3 446 1 839 -5 843 -13 4 -5 2 -9 -2 -9 -5 0 -44 -26
-86 -57 -42 -32 -129 -96 -193 -143 -268 -196 -488 -360 -482 -360 5 0 65 26
163 70 107 48 476 210 479 210 2 0 46 20 98 44 98 46 138 61 138 52 0 -3 -13
-28 -30 -56 -16 -28 -30 -54 -30 -57 0 -4 -6 -14 -14 -22 -7 -9 -29 -45 -48
-81 -19 -36 -70 -125 -112 -199 -42 -73 -76 -136 -76 -139 0 -3 -6 -13 -14
-21 -7 -9 -29 -45 -48 -81 -20 -36 -48 -86 -63 -112 -15 -27 -22 -48 -17 -48
6 0 12 4 14 9 2 7 81 96 178 201 14 15 61 67 105 115 44 49 91 100 104 114 95
105 180 198 202 222 23 26 47 40 36 22 -3 -5 -8 -51 -12 -103 -4 -52 -8 -97
-10 -100 -1 -3 -6 -41 -9 -85 -4 -44 -9 -96 -11 -115 -9 -78 -15 -138 -21
-205 -10 -100 -11 -113 -18 -180 -19 -180 -17 -177 137 288 83 251 154 457
157 457 3 0 74 -206 157 -458 111 -333 151 -442 147 -402 -5 59 -11 126 -19
203 -7 70 -14 134 -20 207 -4 36 -8 76 -10 90 -2 14 -6 57 -10 95 -3 39 -8 86
-10 105 -2 19 -7 69 -11 110 -3 41 -8 84 -10 95 -3 14 4 10 28 -15 17 -19 69
-77 116 -128 47 -51 92 -101 101 -111 9 -10 51 -56 94 -103 42 -47 87 -97 100
-110 144 -159 200 -218 203 -215 2 2 -63 120 -144 263 -82 142 -161 282 -177
309 -16 28 -39 68 -51 90 -13 22 -29 51 -37 65 -34 59 -46 84 -43 87 2 2 194
-80 427 -182 479 -211 463 -204 429 -179 -14 10 -27 20 -30 24 -3 3 -63 48
-135 100 -71 52 -132 97 -135 100 -3 3 -50 38 -105 78 -55 39 -157 114 -227
166 l-128 94 378 2 c207 1 427 2 487 2 l110 0 -50 14 c-27 7 -61 16 -75 18
-55 12 -119 26 -210 46 -52 12 -102 23 -110 25 -225 47 -279 59 -297 66 -13 5
-23 7 -23 4 0 -2 -15 1 -32 6 -18 5 -47 12 -63 14 -17 3 -43 9 -59 13 l-28 8
24 11 c35 18 200 93 203 93 2 0 41 17 87 39 45 21 124 56 173 79 50 22 119 53
155 70 36 16 99 44 140 62 41 18 79 36 83 40 5 4 -87 -12 -205 -36 -117 -25
-223 -46 -234 -48 -54 -10 -470 -98 -482 -101 -18 -7 -2 15 81 107 37 42 76
85 85 95 9 11 43 49 74 84 31 35 65 73 75 85 17 20 136 153 178 200 154 170
157 176 60 104 -63 -47 -686 -493 -702 -504 -8 -4 -11 -2 -8 6 16 51 163 514
205 648 29 91 60 189 70 219 11 29 16 51 14 48 -3 -3 -72 -119 -153 -259 -303
-519 -341 -582 -342 -568 0 8 -2 24 -4 35 -2 11 -7 47 -10 80 -3 33 -7 71 -10
85 -2 14 -7 53 -10 87 -4 35 -8 75 -10 90 -2 16 -7 62 -10 103 -4 41 -9 83
-10 92 -2 9 -7 48 -10 85 -4 37 -8 79 -10 92 -6 36 -18 152 -19 179 0 18 -4
29 -7 20z"/>
</g>
</svg>
