<svg width="952" height="157" viewBox="0 0 952 157" fill="none" xmlns="http://www.w3.org/2000/svg">
<path d="M66.86 71.72C89.74 69.08 111.08 60.28 111.08 36.52C111.08 5.71999 74.56 -1.04904e-05 46.18 -1.04904e-05H0.200001V154H55.64C84.24 154 120.76 143.66 120.76 112.64C120.76 85.8 92.82 74.36 66.86 71.72ZM46.18 1.75999C82.26 1.75999 93.92 17.16 93.92 36.52C93.92 56.1 82.26 71.28 46.18 71.28H17.36V1.75999H46.18ZM55.64 152.46H17.36V73.04H55.64C91.94 73.04 103.38 93.28 103.38 112.64C103.38 132.22 91.94 152.46 55.64 152.46ZM186.473 48.18C168.873 48.18 158.313 57.42 154.793 69.3L156.333 69.96C159.853 58.3 170.193 50.38 184.493 50.38C200.113 50.38 209.133 65.12 209.133 81.84V102.3C195.493 74.14 131.693 76.34 131.693 121.22C131.693 140.58 150.173 155.1 171.073 155.1C193.293 155.1 205.173 139.26 209.133 123.2L224.093 154H226.513V84.7C226.513 57.64 204.733 48.18 186.473 48.18ZM175.913 150.92C160.733 150.92 147.533 137.5 147.533 119.24C147.533 76.12 200.553 81.18 209.133 106.48V111.76C208.253 130.68 196.373 150.92 175.913 150.92ZM340.908 86.68C338.048 60.5 322.868 48.18 304.828 48.18C276.228 48.18 268.748 77.88 265.888 102.74V49.72H248.508V154H265.888V121.44C265.888 102.96 270.288 56.76 294.928 52.14C313.848 48.4 321.988 67.1 323.748 83.6C324.848 94.82 329.468 146.74 330.128 154H347.728C346.628 145.86 343.108 108.24 340.908 86.68ZM411.583 81.4L447.223 49.72H444.803L382.543 104.94V-1.04904e-05H365.383V154H382.543V106.92L400.363 91.08L438.863 154H456.683L411.583 81.4Z" fill="#FFFCF6"/>
<path d="M568.3 -1.04904e-05V62.04H491.74V-1.04904e-05H474.36V154H491.74V63.58H568.3V154H585.68V-1.04904e-05H568.3ZM661.355 48.18C633.635 48.18 603.275 68.2 603.275 101.64C603.275 135.08 633.635 155.1 661.355 155.1C689.075 155.1 719.435 135.08 719.435 101.64C719.435 68.2 689.075 48.18 661.355 48.18ZM661.355 153.34C639.575 153.34 621.315 130.68 621.315 101.64C621.315 72.6 639.575 49.94 661.355 49.94C683.135 49.94 701.395 72.6 701.395 101.64C701.395 130.68 683.135 153.34 661.355 153.34ZM798.546 115.06C798.546 133.32 792.166 150.48 777.426 151.14C760.046 152.02 756.526 138.82 756.526 119.68V49.72H782.266V48.18H756.526V18.04H754.106L739.146 48.18H726.166V49.72H739.146V116.6C739.146 142.34 751.246 155.1 770.606 155.1C793.926 155.1 800.086 135.96 800.086 115.06H798.546ZM917.509 123.42C913.989 129.8 902.109 148.94 880.549 151.14C858.109 153.56 839.629 141.24 831.489 118.14C827.749 107.58 827.309 94.6 829.949 82.94H916.409C913.329 56.32 887.589 47.08 869.109 48.18C844.909 49.28 810.149 65.78 811.249 104.06C812.129 140.14 844.249 156.42 872.849 155.1C899.029 153.78 912.009 136.62 919.049 124.08L917.509 123.42ZM858.989 50.6C880.549 46.64 897.709 62.04 900.569 81.18H830.389C834.569 66.22 844.029 53.46 858.989 50.6ZM934.504 -1.04904e-05V154H951.884V-1.04904e-05H934.504Z" fill="#FCD043"/>
</svg>
