<svg width="147" height="147" viewBox="0 0 147 147" fill="none" xmlns="http://www.w3.org/2000/svg">
<path d="M66.2612 142.586L63.0895 141.318C61.6447 140.719 61.1866 139.626 61.6799 138.287C62.2085 136.913 63.3362 136.419 64.7811 137.019L67.0012 137.9L68.1641 134.904L69.1156 135.292L66.2612 142.586ZM66.684 138.71L64.7811 137.935C63.6886 137.477 63.0191 137.794 62.6667 138.64C62.3142 139.485 62.6314 140.155 63.7239 140.613L65.6268 141.388L66.684 138.71Z" fill="#FFFCF6"/>
<path d="M56.8173 138.358L53.681 136.42C52.4124 135.645 52.0952 134.482 52.7295 133.425C53.2229 132.65 53.9981 132.156 54.9144 132.438C54.2096 131.804 54.421 131.17 54.7734 130.465C55.1258 129.76 55.6191 129.055 55.5134 128.386L56.5001 129.02C56.5706 129.443 56.0068 130.077 55.7249 130.782C55.443 131.487 55.2315 132.121 56.0773 132.685L58.2621 134.024L60.0241 131.205L60.9051 131.734L56.8173 138.358ZM55.9715 133.636C55.161 133.108 54.3153 132.896 53.7162 133.848C53.3286 134.517 53.3638 135.187 54.1743 135.716L56.3944 137.09L57.804 134.764L55.9715 133.636Z" fill="#FFFCF6"/>
<path d="M47.9067 132.332L43.8895 128.737L44.4886 128.068L47.7306 130.957L49.3868 129.09L46.3562 126.411L46.9553 125.742L49.9859 128.49L51.783 126.482L48.5058 123.557L49.1049 122.887L53.1574 126.517L47.9067 132.332Z" fill="#FFFCF6"/>
<path d="M40.6115 125.391L39.7658 124.263L43.466 118.308L36.7704 120.351L35.9246 119.224L42.1268 114.431L42.7259 115.242L37.5456 119.224L44.206 117.215L44.7698 117.92L41.0696 123.805L46.2499 119.823L46.849 120.633L40.6115 125.391Z" fill="#FFFCF6"/>
<path d="M33.422 114.961L32.9287 114.044L39.8356 110.309L40.329 111.225L33.422 114.961Z" fill="#FFFCF6"/>
<path d="M33.2821 102.133C35.1146 101.428 36.5242 102.133 37.1585 103.965C37.8633 105.868 37.4052 107.313 35.4317 108.018L30.7448 109.745L30.3924 108.758L35.0793 107.031C36.3832 106.573 36.8061 105.516 36.3127 104.247C35.8546 103.014 34.8679 102.591 33.5992 103.084L28.9123 104.811L28.5599 103.824L33.2821 102.133Z" fill="#FFFCF6"/>
<path d="M27.2581 98.9261L27.0467 97.5165L33.1781 94.0632L26.3067 92.6184L26.0952 91.2089L33.8476 90.0108L33.9886 90.9975L27.5752 91.9841L34.3762 93.4289L34.4819 94.3098L28.421 97.6927L34.8343 96.706L34.9752 97.6927L27.2581 98.9261Z" fill="#FFFCF6"/>
<path d="M26.1301 80.2492L26.6587 76.6194C26.8701 75.1393 27.7863 74.364 29.0198 74.5402C29.936 74.6812 30.676 75.2098 30.7818 76.1613C31.0989 75.2803 31.7685 75.1745 32.5438 75.245C33.3191 75.3155 34.1648 75.4565 34.7287 75.104L34.5525 76.267C34.1648 76.5137 33.3895 76.2317 32.579 76.267C31.8037 76.267 31.1342 76.3727 30.9932 77.3594L30.6408 79.8968L33.9534 80.3901L33.8124 81.4473L26.1301 80.2492ZM30.1474 77.5709C30.2884 76.5842 30.1474 75.7384 29.0198 75.5974C28.2797 75.4917 27.6454 75.8441 27.5044 76.7604L27.1168 79.3329L29.8303 79.7206L30.1474 77.5709Z" fill="#FFFCF6"/>
<path d="M28.9811 66.402C29.7917 64.041 32.047 63.4772 34.0909 64.182C36.0995 64.8515 37.5795 66.6839 36.769 69.0449C35.9585 71.4059 33.7032 71.9698 31.6593 71.265C29.6155 70.6307 28.1706 68.763 28.9811 66.402ZM35.8881 68.7983C36.4871 67.0011 35.1833 65.6972 33.7032 65.2039C32.2232 64.7105 30.3907 64.922 29.7917 66.7192C29.1926 68.5163 30.4964 69.8202 31.9765 70.3135C33.4565 70.8069 35.289 70.5954 35.8881 68.7983Z" fill="#FFFCF6"/>
<path d="M33.8425 55.7602C35.0758 53.6106 37.4369 53.5049 39.2693 54.5621C41.1017 55.6193 42.1941 57.6984 40.9255 59.8832C39.6569 62.068 37.3311 62.1385 35.4987 61.0813C33.6663 59.9537 32.5739 57.8746 33.8425 55.7602ZM40.1855 59.4251C41.137 57.7689 40.115 56.2536 38.7759 55.4783C37.4016 54.6678 35.6044 54.5621 34.6177 56.1831C33.6663 57.8393 34.6882 59.3546 36.0273 60.1299C37.4016 60.9404 39.1988 61.0461 40.1855 59.4251Z" fill="#FFFCF6"/>
<path d="M38.6746 48.7468L39.626 47.6544L46.1453 50.2269L42.9385 43.9896L43.89 42.8972L49.7044 48.1478L49.0349 48.8878L44.1719 44.5182L47.3786 50.685L46.7796 51.3545L40.2956 48.8173L45.1586 53.187L44.489 53.927L38.6746 48.7468Z" fill="#FFFCF6"/>
<path d="M52.7006 38.6699C51.9253 37.8241 51.0443 37.9298 50.1986 38.5641C49.5291 39.0927 48.9652 39.868 49.5995 40.7137C50.1634 41.489 51.291 40.8547 52.4539 40.3261C53.6168 39.7975 54.8854 39.3746 55.8017 40.6433C56.7884 41.9823 55.9074 43.4976 54.7797 44.3434C53.3701 45.4005 51.6787 45.612 50.5158 44.0967L51.3263 43.4976C52.1015 44.5548 53.3701 44.3434 54.2864 43.6386C55.0616 43.0748 55.6959 42.229 54.9912 41.3128C54.3568 40.4671 53.2292 41.0309 52.0663 41.5595C50.9034 42.0881 49.67 42.5462 48.8243 41.4185C47.8376 40.1499 48.5776 38.7051 49.7052 37.8594C50.9739 36.8727 52.4187 36.767 53.4759 38.106L52.7006 38.6699Z" fill="#FFFCF6"/>
<path d="M59.3224 39.6572L60.3795 39.0933L60.9433 40.1505L59.8861 40.7143L59.3224 39.6572Z" fill="#FFFCF6"/>
<path d="M66.8948 28.9793L69.6435 28.204C70.313 28.0278 71.194 27.7811 71.6874 27.9221C72.2512 28.063 72.8151 28.4859 73.0265 29.2612C73.2732 30.0717 72.9913 30.7765 72.357 31.2699C73.3437 31.1994 74.0485 31.7633 74.2952 32.7148C74.6123 33.8072 74.0837 35.1111 72.6036 35.534L68.9739 36.5559L66.8948 28.9793ZM69.7492 35.3578L72.2865 34.653C73.1675 34.4063 73.5551 33.7367 73.3437 32.891C73.0618 31.9042 72.1808 31.869 71.335 32.0804L69.0444 32.75L69.7492 35.3578ZM68.7977 31.9395L70.8064 31.4109C71.9693 31.0937 72.2865 30.5651 72.075 29.7898C71.7931 28.7326 71.0178 28.8031 70.1368 29.0498L68.1282 29.5784L68.7977 31.9395Z" fill="#FFFCF6"/>
<path d="M79.5095 26.3011L80.6724 26.1954L84.4431 33.7015L83.2801 33.8072L82.2229 31.5519L78.9456 31.869L78.2761 34.3006L77.1836 34.4063L79.5095 26.3011ZM79.1571 30.9528L81.8001 30.7061L80.1438 27.2174L79.1571 30.9528Z" fill="#FFFCF6"/>
<path d="M87.7202 25.9107L88.8126 26.0164L92.3719 32.6769L92.9005 26.3688L93.8872 26.4393L93.2529 34.2627L92.1252 34.1922L88.5659 27.6022L88.0373 33.8398L87.0506 33.7693L87.7202 25.9107Z" fill="#FFFCF6"/>
<path d="M98.8548 27.3221L99.8416 27.6041L98.8196 31.3748L103.683 28.626L104.951 28.9784L100.934 31.1634L103.013 36.5552L101.745 36.2028L100.053 31.6215L98.4672 32.432L97.7271 35.0751L96.7404 34.7931L98.8548 27.3221Z" fill="#FFFCF6"/>
<path d="M114.226 33.0307L115.107 33.5593L113.345 36.449L116.869 38.5634L118.631 35.6737L119.512 36.2023L115.424 42.8979L114.543 42.3693L116.411 39.3034L112.887 37.189L111.019 40.2549L110.138 39.7263L114.226 33.0307Z" fill="#FFFCF6"/>
<path d="M126.202 41.3468C128.034 43.0383 127.647 45.3288 126.202 46.9146C124.757 48.5003 122.537 49.0994 120.669 47.4432C118.802 45.7869 119.225 43.4612 120.669 41.8754C122.114 40.2896 124.334 39.6906 126.202 41.3468ZM121.268 46.7736C122.678 48.0422 124.405 47.3727 125.427 46.2098C126.449 45.0469 127.013 43.285 125.603 42.0164C124.193 40.7478 122.467 41.4173 121.445 42.5802C120.423 43.7431 119.859 45.505 121.268 46.7736Z" fill="#FFFCF6"/>
<path d="M132.228 49.346L130.642 47.2668L131.312 46.7383L135.153 51.707L134.483 52.2356L132.898 50.1565L127.4 54.3851L126.766 53.5394L132.228 49.346Z" fill="#FFFCF6"/>
<path d="M137.303 55.124L139.876 59.8814L139.101 60.3043L137.021 56.4631L134.837 57.6612L136.775 61.2205L136 61.6434L134.061 58.0841L131.7 59.388L133.815 63.2644L133.039 63.6873L130.432 58.8946L137.303 55.124Z" fill="#FFFCF6"/>
<path d="M141.634 63.9698L141.986 64.9565L135.432 67.2823L136.806 71.194L135.96 71.4759L134.233 66.5775L141.634 63.9698Z" fill="#FFFCF6"/>
<path d="M71.7432 83.3884C70.6299 83.2373 69.9016 82.1428 70.192 81.0574C70.4631 80.0443 71.5618 79.5 72.5321 79.8982L85.632 85.2734L71.7432 83.3884Z" fill="#FCD043"/>
<path d="M87.5018 71.3933C87.6521 70.2757 88.7494 69.5449 89.8384 69.8371C90.8548 70.1098 91.4013 71.2133 91.0019 72.1869L85.6356 85.2701L87.5018 71.3933Z" fill="#FCD043"/>
<path d="M77.1967 74.0965C76.5143 73.2007 76.772 71.9103 77.7454 71.3485C78.654 70.8241 79.8176 71.2181 80.2234 72.1875L85.6886 85.2432L77.1967 74.0965Z" fill="#FCD043"/>
<path d="M96.8287 76.7456C97.7235 76.0636 99.0147 76.3241 99.5784 77.3001C100.105 78.2111 99.7125 79.376 98.7436 79.7808L85.6895 85.2343L96.8287 76.7456Z" fill="#FCD043"/>
<path d="M99.5146 87.1541C100.628 87.3052 101.356 88.3997 101.066 89.4851C100.795 90.4982 99.696 91.0424 98.7257 90.6443L85.6257 85.2691L99.5146 87.1541Z" fill="#FCD043"/>
<path d="M83.7619 99.1497C83.6116 100.267 82.5142 100.998 81.4252 100.706C80.4088 100.433 79.8624 99.3296 80.2617 98.3561L85.6281 85.2729L83.7619 99.1497Z" fill="#FCD043"/>
<path d="M94.1783 96.3859C94.8607 97.2817 94.603 98.5721 93.6295 99.134C92.721 99.6583 91.5573 99.2643 91.1515 98.2949L85.6863 85.2392L94.1783 96.3859Z" fill="#FCD043"/>
<path d="M74.5444 93.731C73.6496 94.4129 72.3584 94.1525 71.7947 93.1764C71.2685 92.2655 71.6605 91.1006 72.6295 90.6958L85.6834 85.2422L74.5444 93.731Z" fill="#FCD043"/>
</svg>
